<svg width="239" height="239" viewBox="0 0 239 239" fill="none" xmlns="http://www.w3.org/2000/svg">
<g filter="url(#filter0_bd_846_2118)">
<path d="M117.481 25.0008C118.587 23.8955 120.379 23.8955 121.485 25.0008L121.569 25.0843C122.591 26.1058 124.218 26.194 125.345 25.2891L125.437 25.215C126.656 24.2359 128.438 24.4297 129.418 25.648L129.492 25.7401C130.398 26.8661 132.006 27.1298 133.224 26.352L133.324 26.2883C134.642 25.4467 136.392 25.832 137.235 27.1492L137.299 27.2488C138.077 28.4661 139.648 28.9021 140.942 28.2605L141.048 28.208C142.449 27.5138 144.148 28.0861 144.843 29.4867L144.896 29.5926C145.538 30.887 147.052 31.4902 148.409 30.9923L148.52 30.9516C149.988 30.4129 151.615 31.1656 152.154 32.6331L152.195 32.744C152.694 34.1003 154.134 34.8637 155.536 34.5154L155.651 34.4869C157.169 34.1101 158.705 35.0342 159.083 36.5515L159.111 36.6662C159.46 38.0685 160.809 38.983 162.241 38.7885L162.358 38.7726C163.908 38.5621 165.335 39.6468 165.546 41.196L165.562 41.3132C165.758 42.745 167 43.8 168.445 43.7614L168.563 43.7582C170.126 43.7165 171.427 44.9491 171.47 46.5122L171.473 46.6304C171.513 48.0749 172.634 49.2581 174.074 49.3759L174.192 49.3855C175.75 49.513 176.911 50.8791 176.784 52.4376L176.775 52.5555C176.658 53.9959 177.644 55.2932 179.064 55.5661L179.18 55.5884C180.715 55.8837 181.721 57.3672 181.427 58.903L181.405 59.0191C181.133 60.4384 181.973 61.8348 183.354 62.2595L183.467 62.2942C184.962 62.7537 185.802 64.3374 185.343 65.8323L185.308 65.9453C184.885 67.327 185.569 68.806 186.896 69.3775L187.005 69.4243C188.441 70.0427 189.105 71.7078 188.487 73.1444L188.441 73.2531C187.87 74.5808 188.39 76.1251 189.648 76.8368L189.751 76.8951C191.112 77.6651 191.591 79.3922 190.822 80.7537L190.764 80.8566C190.053 82.1148 190.404 83.7064 191.577 84.5499L191.673 84.6189C192.943 85.5316 193.233 87.3004 192.321 88.5707L192.252 88.6668C191.409 89.8408 191.586 91.4609 192.661 92.4263L192.749 92.5053C193.912 93.5499 194.009 95.3397 192.966 96.504L192.887 96.5921C191.922 97.6681 191.922 99.2977 192.887 100.374L192.966 100.462C194.009 101.626 193.912 103.416 192.749 104.46L192.661 104.539C191.586 105.505 191.409 107.125 192.252 108.299L192.321 108.395C193.233 109.665 192.943 111.434 191.673 112.347L191.577 112.416C190.404 113.259 190.053 114.851 190.764 116.109L190.822 116.212C191.591 117.574 191.112 119.301 189.751 120.071L189.648 120.129C188.39 120.841 187.87 122.385 188.441 123.713L188.487 123.821C189.105 125.258 188.441 126.923 187.005 127.542L186.896 127.588C185.569 128.16 184.885 129.639 185.308 131.02L185.343 131.134C185.802 132.628 184.962 134.212 183.467 134.672L183.354 134.706C181.973 135.131 181.133 136.527 181.405 137.947L181.427 138.063C181.721 139.599 180.715 141.082 179.18 141.377L179.064 141.4C177.644 141.673 176.658 142.97 176.775 144.41L176.784 144.528C176.911 146.087 175.75 147.453 174.192 147.58L174.074 147.59C172.634 147.708 171.513 148.891 171.473 150.335L171.47 150.454C171.427 152.017 170.126 153.249 168.563 153.208L168.445 153.204C167 153.166 165.758 154.221 165.562 155.653L165.546 155.77C165.335 157.319 163.908 158.404 162.358 158.193L162.241 158.177C160.809 157.983 159.46 158.897 159.111 160.3L159.083 160.414C158.705 161.932 157.169 162.856 155.651 162.479L155.536 162.45C154.134 162.102 152.694 162.866 152.195 164.222L152.154 164.333C151.615 165.8 149.988 166.553 148.52 166.014L148.409 165.973C147.052 165.476 145.538 166.079 144.896 167.373L144.843 167.479C144.148 168.88 142.449 169.452 141.048 168.758L140.942 168.705C139.648 168.064 138.077 168.5 137.299 169.717L137.235 169.817C136.392 171.134 134.642 171.519 133.324 170.677L133.224 170.614C132.006 169.836 130.398 170.1 129.492 171.226L129.418 171.318C128.438 172.536 126.656 172.73 125.437 171.751L125.345 171.677C124.218 170.772 122.591 170.86 121.569 171.881L121.485 171.965C120.379 173.07 118.587 173.07 117.481 171.965L117.397 171.881C116.375 170.86 114.748 170.772 113.621 171.677L113.529 171.751C112.31 172.73 110.528 172.536 109.548 171.318L109.473 171.226C108.568 170.1 106.959 169.836 105.742 170.614L105.642 170.677C104.324 171.519 102.574 171.134 101.731 169.817L101.667 169.717C100.888 168.5 99.3182 168.064 98.0234 168.705L97.9174 168.758C96.5163 169.452 94.8178 168.88 94.1225 167.479L94.0699 167.373C93.4273 166.079 91.9134 165.476 90.5568 165.973L90.4458 166.014C88.9779 166.553 87.3511 165.8 86.8113 164.333L86.7705 164.222C86.2717 162.866 84.8319 162.102 83.4293 162.45L83.3146 162.479C81.797 162.856 80.2612 161.932 79.8832 160.414L79.8547 160.3C79.5054 158.897 78.1565 157.983 76.7246 158.177L76.6074 158.193C75.058 158.404 73.6311 157.319 73.4194 155.77L73.4034 155.653C73.2078 154.221 71.9657 153.166 70.5211 153.204L70.4029 153.208C68.8399 153.249 67.5386 152.017 67.4956 150.454L67.4924 150.335C67.4527 148.891 66.332 147.708 64.8917 147.59L64.7739 147.58C63.2154 147.453 62.0551 146.087 62.1814 144.528L62.1909 144.41C62.3077 142.97 61.3214 141.673 59.9023 141.4L59.7862 141.377C58.2507 141.082 57.2448 139.599 57.5389 138.063L57.5611 137.947C57.8329 136.527 56.9928 135.131 55.6115 134.706L55.4984 134.672C54.0039 134.212 53.1643 132.628 53.6227 131.134L53.6573 131.02C54.081 129.639 53.3967 128.16 52.0694 127.588L51.9608 127.542C50.5247 126.923 49.8613 125.258 50.4786 123.821L50.5253 123.713C51.0958 122.385 50.5755 120.841 49.3178 120.129L49.2149 120.071C47.854 119.301 47.3745 117.574 48.1435 116.212L48.2017 116.109C48.9124 114.851 48.5621 113.259 47.3887 112.416L47.2927 112.347C46.0231 111.434 45.7331 109.665 46.6449 108.395L46.7138 108.299C47.5564 107.125 47.3802 105.505 46.3049 104.539L46.2169 104.46C45.0534 103.416 44.9564 101.626 46.0001 100.462L46.0791 100.374C47.0437 99.2977 47.0437 97.6681 46.0791 96.592L46.0001 96.504C44.9564 95.3397 45.0534 93.5499 46.2169 92.5053L46.3049 92.4263C47.3802 91.4609 47.5564 89.8408 46.7138 88.6668L46.6449 88.5707C45.7331 87.3004 46.0231 85.5316 47.2927 84.6189L47.3887 84.5499C48.5621 83.7064 48.9124 82.1148 48.2017 80.8566L48.1435 80.7537C47.3745 79.3922 47.854 77.6651 49.2149 76.8951L49.3178 76.8368C50.5755 76.1251 51.0958 74.5808 50.5253 73.2531L50.4786 73.1444C49.8613 71.7078 50.5247 70.0427 51.9608 69.4243L52.0694 69.3775C53.3967 68.806 54.081 67.327 53.6573 65.9453L53.6227 65.8323C53.1643 64.3374 54.0039 62.7537 55.4984 62.2942L55.6115 62.2595C56.9928 61.8348 57.8329 60.4384 57.5611 59.0191L57.5389 58.903C57.2448 57.3672 58.2507 55.8837 59.7862 55.5884L59.9023 55.5661C61.3214 55.2932 62.3077 53.9959 62.1909 52.5555L62.1814 52.4376C62.0551 50.8791 63.2154 49.513 64.7739 49.3855L64.8917 49.3759C66.332 49.2581 67.4527 48.0749 67.4924 46.6304L67.4956 46.5122C67.5386 44.9491 68.8399 43.7165 70.4029 43.7582L70.5211 43.7614C71.9657 43.8 73.2078 42.745 73.4034 41.3132L73.4194 41.196C73.6311 39.6468 75.058 38.5621 76.6074 38.7726L76.7246 38.7885C78.1565 38.983 79.5054 38.0685 79.8547 36.6662L79.8832 36.5515C80.2612 35.0342 81.797 34.1101 83.3146 34.4869L83.4293 34.5154C84.8319 34.8637 86.2717 34.1003 86.7705 32.744L86.8113 32.6331C87.3511 31.1656 88.9779 30.4129 90.4458 30.9516L90.5568 30.9923C91.9134 31.4902 93.4273 30.887 94.0699 29.5926L94.1225 29.4867C94.8178 28.0861 96.5163 27.5138 97.9174 28.208L98.0234 28.2605C99.3182 28.9021 100.888 28.4661 101.667 27.2488L101.731 27.1492C102.574 25.832 104.324 25.4467 105.642 26.2883L105.742 26.352C106.959 27.1298 108.568 26.8661 109.473 25.7401L109.548 25.648C110.528 24.4297 112.31 24.2359 113.529 25.215L113.621 25.2891C114.748 26.194 116.375 26.1058 117.397 25.0843L117.481 25.0008Z" fill="url(#paint0_linear_846_2118)"/>
<path d="M179.37 92.3384L180.225 94.6498L182.537 95.5051L180.225 96.3604L179.37 98.6719L178.515 96.3604L176.203 95.5051L178.515 94.6498L179.37 92.3384Z" fill="white" fill-opacity="0.8"/>
<path d="M62.698 92.3384L63.5533 94.6498L65.8647 95.5051L63.5533 96.3604L62.698 98.6719L61.8427 96.3604L59.5312 95.5051L61.8427 94.6498L62.698 92.3384Z" fill="white" fill-opacity="0.8"/>
<path d="M171.442 97.3126C171.442 125.403 148.67 148.174 120.58 148.174C92.4896 148.174 69.718 125.403 69.718 97.3126C69.718 69.2224 92.4896 46.4507 120.58 46.4507C148.67 46.4507 171.442 69.2224 171.442 97.3126Z" stroke="white" stroke-opacity="0.3" stroke-width="0.50631"/>
<path d="M188.125 97.313C188.125 134.617 157.884 164.858 120.58 164.858C83.2755 164.858 53.0344 134.617 53.0344 97.313C53.0344 60.0088 83.2755 29.7677 120.58 29.7677C157.884 29.7677 188.125 60.0088 188.125 97.313Z" stroke="white" stroke-opacity="0.3" stroke-width="0.50631"/>
<path d="M80.4173 86.0612C80.3761 85.6461 80.1995 85.3237 79.8873 85.0938C79.5751 84.864 79.1515 84.7491 78.6163 84.7491C78.2527 84.7491 77.9457 84.8005 77.6953 84.9034C77.4449 85.0029 77.2528 85.1418 77.119 85.3202C76.9886 85.4986 76.9234 85.701 76.9234 85.9274C76.9166 86.1161 76.956 86.2807 77.0418 86.4214C77.131 86.562 77.2528 86.6838 77.4071 86.7867C77.5615 86.8862 77.7399 86.9737 77.9423 87.0491C78.1447 87.1212 78.3608 87.1829 78.5906 87.2344L79.5374 87.4608C79.9971 87.5637 80.419 87.7009 80.8032 87.8724C81.1874 88.044 81.5202 88.2549 81.8015 88.5053C82.0828 88.7558 82.3006 89.0508 82.455 89.3904C82.6128 89.73 82.6934 90.1193 82.6968 90.5584C82.6934 91.2033 82.5287 91.7625 82.2028 92.2359C81.8804 92.7059 81.4138 93.0712 80.8032 93.3319C80.196 93.5892 79.4637 93.7178 78.6061 93.7178C77.7553 93.7178 77.0144 93.5875 76.3832 93.3268C75.7554 93.0661 75.2649 92.6801 74.9115 92.169C74.5616 91.6544 74.3781 91.0181 74.3609 90.26H76.5169C76.541 90.6133 76.6422 90.9083 76.8205 91.145C77.0023 91.3783 77.2442 91.555 77.5461 91.675C77.8514 91.7917 78.1961 91.85 78.5803 91.85C78.9577 91.85 79.2853 91.7951 79.5631 91.6853C79.8444 91.5755 80.0623 91.4229 80.2166 91.2274C80.371 91.0318 80.4482 90.8071 80.4482 90.5533C80.4482 90.3166 80.3779 90.1176 80.2372 89.9564C80.1 89.7952 79.8976 89.658 79.63 89.5448C79.3659 89.4316 79.0417 89.3286 78.6575 89.236L77.51 88.9479C76.6216 88.7318 75.9201 88.3939 75.4055 87.9342C74.8909 87.4745 74.6354 86.8553 74.6388 86.0766C74.6354 85.4386 74.8052 84.8811 75.1482 84.4043C75.4947 83.9275 75.9698 83.5553 76.5735 83.2877C77.1773 83.0201 77.8634 82.8864 78.6318 82.8864C79.4139 82.8864 80.0966 83.0201 80.6797 83.2877C81.2663 83.5553 81.7226 83.9275 82.0485 84.4043C82.3743 84.8811 82.5424 85.4334 82.5527 86.0612H80.4173ZM83.7941 84.8674V83.0304H92.449V84.8674H89.2227V93.5686H87.0204V84.8674H83.7941ZM94.403 93.5686H92.0155L95.6534 83.0304H98.5246L102.157 93.5686H99.7699L97.1302 85.4386H97.0478L94.403 93.5686ZM94.2538 89.4264H99.8933V91.1656H94.2538V89.4264ZM103.426 93.5686V83.0304H107.583C108.379 83.0304 109.058 83.1728 109.621 83.4575C110.187 83.7388 110.618 84.1385 110.913 84.6564C111.211 85.171 111.36 85.7765 111.36 86.4728C111.36 87.1726 111.209 87.7747 110.907 88.2789C110.606 88.7798 110.168 89.164 109.595 89.4316C109.026 89.6991 108.336 89.8329 107.527 89.8329H104.743V88.0422H107.167C107.592 88.0422 107.945 87.9839 108.227 87.8673C108.508 87.7507 108.717 87.5757 108.854 87.3424C108.995 87.1092 109.065 86.8193 109.065 86.4728C109.065 86.1229 108.995 85.8279 108.854 85.5878C108.717 85.3477 108.506 85.1659 108.221 85.0424C107.94 84.9154 107.585 84.852 107.156 84.852H105.654V93.5686H103.426ZM109.117 88.7729L111.736 93.5686H109.276L106.714 88.7729H109.117ZM122.233 86.7198H119.979C119.938 86.4282 119.854 86.1692 119.727 85.9428C119.6 85.713 119.437 85.5175 119.238 85.3562C119.039 85.195 118.809 85.0715 118.549 84.9858C118.291 84.9 118.012 84.8571 117.71 84.8571C117.165 84.8571 116.689 84.9926 116.285 85.2636C115.88 85.5312 115.566 85.9223 115.343 86.4368C115.12 86.9479 115.009 87.5688 115.009 88.2995C115.009 89.0508 115.12 89.682 115.343 90.1931C115.569 90.7042 115.885 91.0901 116.29 91.3509C116.695 91.6116 117.163 91.7419 117.695 91.7419C117.993 91.7419 118.269 91.7025 118.523 91.6236C118.78 91.5447 119.008 91.4298 119.207 91.2788C119.406 91.1244 119.571 90.9375 119.701 90.7179C119.835 90.4984 119.928 90.248 119.979 89.9667L122.233 89.977C122.175 90.4607 122.029 90.9272 121.796 91.3766C121.566 91.8225 121.255 92.2222 120.864 92.5755C120.477 92.9254 120.013 93.2033 119.475 93.4091C118.94 93.6115 118.334 93.7127 117.658 93.7127C116.719 93.7127 115.878 93.5 115.137 93.0746C114.4 92.6493 113.816 92.0335 113.388 91.2274C112.962 90.4212 112.75 89.4453 112.75 88.2995C112.75 87.1503 112.966 86.1727 113.398 85.3665C113.83 84.5604 114.417 83.9464 115.158 83.5244C115.899 83.099 116.732 82.8864 117.658 82.8864C118.269 82.8864 118.835 82.9721 119.357 83.1436C119.881 83.3152 120.346 83.5656 120.751 83.8949C121.156 84.2208 121.485 84.6204 121.739 85.0938C121.996 85.5672 122.161 86.1092 122.233 86.7198ZM123.831 93.5686V83.0304H126.059V91.7316H130.576V93.5686H123.831ZM134.28 83.0304V93.5686H132.052V83.0304H134.28ZM144.928 83.0304V93.5686H143.003L138.418 86.9359H138.341V93.5686H136.113V83.0304H138.068L142.617 89.658H142.71V83.0304H144.928ZM156.066 86.7198H153.813C153.772 86.4282 153.687 86.1692 153.561 85.9428C153.434 85.713 153.271 85.5175 153.072 85.3562C152.873 85.195 152.643 85.0715 152.382 84.9858C152.125 84.9 151.845 84.8571 151.543 84.8571C150.998 84.8571 150.523 84.9926 150.118 85.2636C149.713 85.5312 149.399 85.9223 149.177 86.4368C148.954 86.9479 148.842 87.5688 148.842 88.2995C148.842 89.0508 148.954 89.682 149.177 90.1931C149.403 90.7042 149.719 91.0901 150.123 91.3509C150.528 91.6116 150.996 91.7419 151.528 91.7419C151.826 91.7419 152.103 91.7025 152.356 91.6236C152.614 91.5447 152.842 91.4298 153.041 91.2788C153.24 91.1244 153.404 90.9375 153.535 90.7179C153.669 90.4984 153.761 90.248 153.813 89.9667L156.066 89.977C156.008 90.4607 155.862 90.9272 155.629 91.3766C155.399 91.8225 155.089 92.2222 154.698 92.5755C154.31 92.9254 153.847 93.2033 153.308 93.4091C152.773 93.6115 152.168 93.7127 151.492 93.7127C150.552 93.7127 149.712 93.5 148.971 93.0746C148.233 92.6493 147.65 92.0335 147.221 91.2274C146.796 90.4212 146.583 89.4453 146.583 88.2995C146.583 87.1503 146.799 86.1727 147.231 85.3665C147.664 84.5604 148.25 83.9464 148.991 83.5244C149.732 83.099 150.566 82.8864 151.492 82.8864C152.103 82.8864 152.669 82.9721 153.19 83.1436C153.715 83.3152 154.18 83.5656 154.585 83.8949C154.989 84.2208 155.319 84.6204 155.572 85.0938C155.83 85.5672 155.994 86.1092 156.066 86.7198ZM157.664 93.5686V83.0304H159.892V87.3785H164.415V83.0304H166.638V93.5686H164.415V89.2154H159.892V93.5686H157.664ZM90.8751 101.03L93.4221 109.037H93.5199L96.0721 101.03H98.542L94.9092 111.569H92.038L88.4 101.03H90.8751ZM99.8104 111.569V101.03H106.911V102.867H102.038V105.378H106.546V107.215H102.038V109.732H106.932V111.569H99.8104ZM108.683 111.569V101.03H112.84C113.636 101.03 114.315 101.173 114.878 101.458C115.444 101.739 115.874 102.138 116.169 102.656C116.468 103.171 116.617 103.776 116.617 104.473C116.617 105.173 116.466 105.775 116.164 106.279C115.862 106.78 115.425 107.164 114.852 107.432C114.283 107.699 113.593 107.833 112.784 107.833H110V106.042H112.423C112.849 106.042 113.202 105.984 113.483 105.867C113.765 105.751 113.974 105.576 114.111 105.342C114.252 105.109 114.322 104.819 114.322 104.473C114.322 104.123 114.252 103.828 114.111 103.588C113.974 103.348 113.763 103.166 113.478 103.042C113.197 102.915 112.842 102.852 112.413 102.852H110.911V111.569H108.683ZM114.374 106.773L116.993 111.569H114.533L111.971 106.773H114.374ZM120.42 101.03V111.569H118.192V101.03H120.42ZM122.253 111.569V101.03H129.23V102.867H124.481V105.378H128.767V107.215H124.481V111.569H122.253ZM132.957 101.03V111.569H130.729V101.03H132.957ZM134.79 111.569V101.03H141.891V102.867H137.018V105.378H141.526V107.215H137.018V109.732H141.912V111.569H134.79ZM147.398 111.569H143.662V101.03H147.429C148.489 101.03 149.401 101.241 150.166 101.663C150.931 102.082 151.52 102.684 151.931 103.469C152.346 104.255 152.554 105.195 152.554 106.289C152.554 107.387 152.346 108.33 151.931 109.119C151.52 109.908 150.928 110.514 150.156 110.936C149.388 111.358 148.468 111.569 147.398 111.569ZM145.89 109.66H147.305C147.964 109.66 148.518 109.543 148.967 109.31C149.42 109.073 149.76 108.708 149.986 108.214C150.216 107.716 150.331 107.075 150.331 106.289C150.331 105.511 150.216 104.874 149.986 104.38C149.76 103.886 149.422 103.523 148.973 103.289C148.523 103.056 147.969 102.939 147.311 102.939H145.89V109.66ZM92.0257 129.569H89.6382L93.2761 119.03H96.1474L99.7801 129.569H97.3926L94.7529 121.439H94.6706L92.0257 129.569ZM91.8765 125.426H97.5161V127.166H91.8765V125.426ZM101.049 129.569V119.03H105.206C106.002 119.03 106.681 119.173 107.244 119.458C107.81 119.739 108.24 120.138 108.535 120.656C108.834 121.171 108.983 121.776 108.983 122.473C108.983 123.173 108.832 123.775 108.53 124.279C108.228 124.78 107.791 125.164 107.218 125.432C106.649 125.699 105.959 125.833 105.15 125.833H102.366V124.042H104.789C105.215 124.042 105.568 123.984 105.849 123.867C106.131 123.751 106.34 123.576 106.477 123.342C106.618 123.109 106.688 122.819 106.688 122.473C106.688 122.123 106.618 121.828 106.477 121.588C106.34 121.348 106.129 121.166 105.844 121.042C105.563 120.915 105.208 120.852 104.779 120.852H103.277V129.569H101.049ZM106.74 124.773L109.359 129.569H106.899L104.337 124.773H106.74ZM110.156 120.867V119.03H118.811V120.867H115.585V129.569H113.383V120.867H110.156ZM122.464 119.03V129.569H120.236V119.03H122.464ZM130.014 122.061C129.973 121.646 129.797 121.324 129.484 121.094C129.172 120.864 128.749 120.749 128.213 120.749C127.85 120.749 127.543 120.801 127.292 120.903C127.042 121.003 126.85 121.142 126.716 121.32C126.586 121.499 126.52 121.701 126.52 121.927C126.514 122.116 126.553 122.281 126.639 122.421C126.728 122.562 126.85 122.684 127.004 122.787C127.159 122.886 127.337 122.974 127.539 123.049C127.742 123.121 127.958 123.183 128.188 123.234L129.134 123.461C129.594 123.564 130.016 123.701 130.4 123.872C130.784 124.044 131.117 124.255 131.398 124.505C131.68 124.756 131.898 125.051 132.052 125.39C132.21 125.73 132.29 126.119 132.294 126.558C132.29 127.203 132.126 127.763 131.8 128.236C131.477 128.706 131.011 129.071 130.4 129.332C129.793 129.589 129.061 129.718 128.203 129.718C127.352 129.718 126.611 129.587 125.98 129.327C125.352 129.066 124.862 128.68 124.509 128.169C124.159 127.654 123.975 127.018 123.958 126.26H126.114C126.138 126.613 126.239 126.908 126.418 127.145C126.599 127.378 126.841 127.555 127.143 127.675C127.448 127.792 127.793 127.85 128.177 127.85C128.555 127.85 128.882 127.795 129.16 127.685C129.441 127.576 129.659 127.423 129.814 127.227C129.968 127.032 130.045 126.807 130.045 126.553C130.045 126.317 129.975 126.118 129.834 125.956C129.697 125.795 129.495 125.658 129.227 125.545C128.963 125.432 128.639 125.329 128.255 125.236L127.107 124.948C126.219 124.732 125.517 124.394 125.003 123.934C124.488 123.475 124.232 122.855 124.236 122.077C124.232 121.439 124.402 120.881 124.745 120.404C125.092 119.927 125.567 119.555 126.171 119.288C126.774 119.02 127.46 118.886 128.229 118.886C129.011 118.886 129.694 119.02 130.277 119.288C130.863 119.555 131.32 119.927 131.645 120.404C131.971 120.881 132.139 121.433 132.15 122.061H130.014ZM133.391 120.867V119.03H142.046V120.867H138.82V129.569H136.617V120.867H133.391ZM149.188 122.061C149.147 121.646 148.97 121.324 148.658 121.094C148.346 120.864 147.922 120.749 147.387 120.749C147.024 120.749 146.716 120.801 146.466 120.903C146.216 121.003 146.024 121.142 145.89 121.32C145.759 121.499 145.694 121.701 145.694 121.927C145.687 122.116 145.727 122.281 145.813 122.421C145.902 122.562 146.024 122.684 146.178 122.787C146.332 122.886 146.511 122.974 146.713 123.049C146.915 123.121 147.132 123.183 147.361 123.234L148.308 123.461C148.768 123.564 149.19 123.701 149.574 123.872C149.958 124.044 150.291 124.255 150.572 124.505C150.854 124.756 151.071 125.051 151.226 125.39C151.384 125.73 151.464 126.119 151.468 126.558C151.464 127.203 151.299 127.763 150.974 128.236C150.651 128.706 150.185 129.071 149.574 129.332C148.967 129.589 148.234 129.718 147.377 129.718C146.526 129.718 145.785 129.587 145.154 129.327C144.526 129.066 144.036 128.68 143.682 128.169C143.332 127.654 143.149 127.018 143.132 126.26H145.288C145.312 126.613 145.413 126.908 145.591 127.145C145.773 127.378 146.015 127.555 146.317 127.675C146.622 127.792 146.967 127.85 147.351 127.85C147.728 127.85 148.056 127.795 148.334 127.685C148.615 127.576 148.833 127.423 148.987 127.227C149.142 127.032 149.219 126.807 149.219 126.553C149.219 126.317 149.149 126.118 149.008 125.956C148.871 125.795 148.668 125.658 148.401 125.545C148.137 125.432 147.812 125.329 147.428 125.236L146.281 124.948C145.392 124.732 144.691 124.394 144.176 123.934C143.662 123.475 143.406 122.855 143.41 122.077C143.406 121.439 143.576 120.881 143.919 120.404C144.265 119.927 144.741 119.555 145.344 119.288C145.948 119.02 146.634 118.886 147.403 118.886C148.185 118.886 148.867 119.02 149.451 119.288C150.037 119.555 150.493 119.927 150.819 120.404C151.145 120.881 151.313 121.433 151.324 122.061H149.188Z" fill="url(#paint1_linear_846_2118)" fill-opacity="0.9"/>
<path d="M61.7862 85.8819L61.9257 85.1807L64.5648 84.2481L64.5766 84.1888L62.4955 82.317L62.635 81.6158L65.2439 84.0341L67.3275 84.4487L67.2057 85.061L65.1221 84.6464L61.7862 85.8819Z" fill="white"/>
<path d="M67.7942 82.5025L62.8232 81.1369L63.6474 78.1369L64.1814 78.2836L63.5226 80.6817L65.2022 81.1431L65.8183 78.9003L66.3523 79.047L65.7362 81.2898L67.4256 81.7539L68.095 79.3169L68.629 79.4636L67.7942 82.5025Z" fill="white"/>
<path d="M68.9429 78.6382L68.7225 79.2544L64.5059 75.7361L64.7229 75.1293L70.2144 75.083L69.994 75.6992L65.3891 75.6884L65.3755 75.7263L68.9429 78.6382ZM67.1281 77.7325L68.0165 75.2486L68.5379 75.4351L67.6496 77.919L67.1281 77.7325Z" fill="white"/>
<path d="M70.4532 74.6747L65.7475 72.5694L66.4589 70.9794C66.6233 70.6118 66.8211 70.3381 67.0523 70.1584C67.2819 69.978 67.5308 69.8798 67.7991 69.8638C68.0673 69.8477 68.34 69.9017 68.6173 70.0258C68.8945 70.1498 69.115 70.3165 69.2788 70.5258C69.4425 70.7351 69.5332 70.9843 69.5509 71.2735C69.5671 71.562 69.4936 71.8885 69.3305 72.2531L68.7549 73.5398L68.2402 73.3096L68.8076 72.0412C68.92 71.79 68.9737 71.5714 68.9687 71.3853C68.9644 71.1977 68.9102 71.0393 68.8063 70.91C68.7015 70.7786 68.5549 70.6707 68.3665 70.5864C68.178 70.5021 67.9976 70.4637 67.8252 70.4711C67.6527 70.4785 67.4936 70.5424 67.3478 70.6629C67.2004 70.7826 67.0699 70.9697 66.9561 71.2239L66.508 72.2257L70.7082 74.1048L70.4532 74.6747ZM69.3303 71.514L71.9623 71.3016L71.6662 71.9634L69.0425 72.1573L69.3303 71.514Z" fill="white"/>
<path d="M70.1069 66.7035C69.868 66.6091 69.6356 66.623 69.4096 66.7452C69.1836 66.8674 68.9966 67.066 68.8485 67.3407C68.7403 67.5417 68.6781 67.735 68.6619 67.9207C68.6465 68.1049 68.673 68.2698 68.7414 68.4153C68.8105 68.5593 68.9175 68.6703 69.0623 68.7483C69.1834 68.8136 69.3031 68.8409 69.4213 68.8302C69.5388 68.8173 69.6511 68.7806 69.7581 68.72C69.8635 68.6587 69.9618 68.5877 70.0529 68.5072C70.1425 68.4258 70.221 68.349 70.2885 68.2767L70.661 67.8827C70.7557 67.7812 70.8694 67.6728 71.002 67.5575C71.1355 67.4407 71.2853 67.3413 71.4515 67.2592C71.617 67.175 71.7964 67.1286 71.9896 67.1203C72.1828 67.1119 72.3858 67.165 72.5985 67.2797C72.8438 67.4118 73.0307 67.5955 73.1594 67.8306C73.2889 68.0644 73.346 68.3353 73.3306 68.6434C73.3159 68.95 73.2147 69.2777 73.0268 69.6263C72.8517 69.9513 72.6476 70.2045 72.4146 70.3858C72.1824 70.5657 71.9358 70.673 71.675 70.7079C71.4149 70.7412 71.156 70.6999 70.8983 70.5839L71.2039 70.0166C71.3833 70.0942 71.5561 70.113 71.7225 70.073C71.8882 70.0308 72.0402 69.9468 72.1785 69.8211C72.316 69.6932 72.4334 69.5391 72.5305 69.3589C72.6435 69.1491 72.711 68.9424 72.733 68.7389C72.7535 68.5345 72.7287 68.3506 72.6586 68.187C72.5871 68.0226 72.4686 67.8959 72.3031 67.8067C72.1524 67.7255 72.0071 67.7016 71.8672 67.7348C71.7273 67.7681 71.5908 67.8375 71.4576 67.9431C71.3245 68.0486 71.1928 68.1692 71.0625 68.3049L70.6021 68.7774C70.3091 69.077 70.0124 69.2793 69.7118 69.3842C69.4113 69.4892 69.1081 69.4592 68.8023 69.2945C68.5482 69.1576 68.3637 68.9695 68.2486 68.7302C68.1328 68.4886 68.0854 68.2229 68.1063 67.933C68.1265 67.6408 68.2146 67.3499 68.3706 67.0603C68.5282 66.7678 68.7207 66.5361 68.9482 66.3651C69.1742 66.1933 69.4131 66.0895 69.665 66.0536C69.9177 66.0163 70.1605 66.0556 70.3934 66.1716L70.1069 66.7035Z" fill="white"/>
<path d="M75.7405 60.6042C76.1844 60.9181 76.5113 61.2695 76.7213 61.6585C76.9313 62.0475 77.0252 62.4437 77.0029 62.8473C76.9806 63.2508 76.8425 63.632 76.5887 63.991C76.3348 64.35 76.0214 64.6072 75.6483 64.7627C75.2753 64.9182 74.8704 64.9617 74.4337 64.8934C73.997 64.825 73.5567 64.6339 73.1128 64.3199C72.6688 64.006 72.3419 63.6546 72.1319 63.2656C71.9219 62.8766 71.8281 62.4804 71.8503 62.0768C71.8726 61.6733 72.0107 61.2921 72.2646 60.9331C72.5184 60.5741 72.8319 60.3169 73.2049 60.1614C73.5779 60.0059 73.9828 59.9624 74.4195 60.0307C74.8562 60.0991 75.2966 60.2902 75.7405 60.6042ZM75.3917 61.0974C75.0272 60.8397 74.6765 60.6831 74.3395 60.6278C74.0035 60.571 73.698 60.6005 73.4229 60.7164C73.1488 60.8308 72.9216 61.0154 72.7414 61.2703C72.5611 61.5251 72.4623 61.8015 72.4448 62.0995C72.4282 62.3961 72.5022 62.694 72.6667 62.9933C72.8322 63.2912 73.0971 63.569 73.4616 63.8267C73.826 64.0844 74.1762 64.2417 74.5122 64.2984C74.8492 64.3538 75.1548 64.3243 75.4289 64.2098C75.704 64.094 75.9316 63.9087 76.1119 63.6538C76.2921 63.399 76.3905 63.1233 76.407 62.8267C76.4245 62.5287 76.3506 62.2308 76.1851 61.9329C76.0206 61.6336 75.7561 61.3551 75.3917 61.0974Z" fill="white"/>
<path d="M78.2383 61.7205L74.2714 58.4282L76.2455 56.0496L76.6716 56.4033L75.0962 58.3015L76.4366 59.414L77.8641 57.6939L78.2903 58.0476L76.8627 59.7676L78.637 61.2402L78.2383 61.7205Z" fill="white"/>
<path d="M82.1474 57.3699L78.5602 53.6675L80.7946 51.5026L81.18 51.9003L79.3939 53.6308L80.606 54.8818L82.2764 53.2634L82.6617 53.6611L80.9913 55.2796L82.2104 56.5378L84.0254 54.7792L84.4108 55.1769L82.1474 57.3699Z" fill="white"/>
<path d="M81.8616 50.6147L84.2595 51.3994L84.2904 51.3735L83.9259 48.8769L84.4882 48.4035L84.9081 51.4194L87.8082 52.3472L87.246 52.8206L84.874 52.0667L84.8432 52.0926L85.1817 54.5584L84.6194 55.0318L84.2303 51.99L81.2993 51.0881L81.8616 50.6147Z" fill="white"/>
<path d="M89.2088 47.043L88.7023 47.4079C88.5674 47.2838 88.4227 47.1936 88.2684 47.1373C88.1154 47.08 87.9588 47.0522 87.7987 47.0538C87.6389 47.0531 87.4813 47.0798 87.3258 47.1339C87.1704 47.188 87.0232 47.2651 86.8844 47.3651C86.6311 47.5476 86.4478 47.7769 86.3345 48.053C86.2225 48.3281 86.1956 48.6339 86.254 48.9704C86.3137 49.3059 86.474 49.6547 86.735 50.0169C86.9959 50.379 87.2761 50.6415 87.5754 50.8043C87.8761 50.9662 88.1747 51.0375 88.4711 51.0183C88.7689 50.9982 89.0444 50.8969 89.2977 50.7144C89.4366 50.6143 89.5562 50.4991 89.6568 50.3688C89.7573 50.2385 89.833 50.0981 89.8838 49.9477C89.9351 49.7949 89.9578 49.6369 89.9518 49.4736C89.9463 49.308 89.9065 49.1423 89.8324 48.9764L90.3389 48.6114C90.4548 48.8527 90.5232 49.094 90.5441 49.3354C90.565 49.5768 90.5432 49.8107 90.4788 50.0371C90.4134 50.2621 90.3095 50.4724 90.1671 50.6681C90.0261 50.8628 89.8501 51.0361 89.6391 51.1882C89.2824 51.4452 88.9024 51.5867 88.499 51.6125C88.0957 51.6384 87.6987 51.548 87.3078 51.3415C86.917 51.135 86.5627 50.8111 86.2448 50.37C85.927 49.9289 85.732 49.4903 85.6597 49.0542C85.5875 48.6181 85.6275 48.2129 85.7796 47.8385C85.9318 47.4641 86.1863 47.1484 86.543 46.8913C86.754 46.7393 86.9742 46.6272 87.2035 46.555C87.4341 46.4819 87.667 46.4506 87.9022 46.4611C88.1363 46.4703 88.3645 46.523 88.5869 46.6192C88.8084 46.7141 89.0156 46.8554 89.2088 47.043Z" fill="white"/>
<path d="M91.5878 49.8102L88.8976 45.4126L91.5516 43.789L91.8406 44.2614L89.7191 45.5593L90.6281 47.0451L92.6121 45.8314L92.9011 46.3038L90.9171 47.5175L91.8313 49.012L93.9872 47.6932L94.2761 48.1656L91.5878 49.8102Z" fill="white"/>
<path d="M94.9015 47.8698L92.5164 43.2996L93.0698 43.0107L95.1987 47.09L97.3231 45.9813L97.5793 46.4722L94.9015 47.8698Z" fill="white"/>
<path d="M98.1582 46.2503L96.0805 41.5324L96.6518 41.2808L98.5063 45.4919L100.699 44.5261L100.923 45.033L98.1582 46.2503Z" fill="white"/>
<path d="M101.505 44.85L99.7532 40.0017L102.679 38.9442L102.867 39.465L100.529 40.3104L101.121 41.9485L103.308 41.158L103.496 41.6788L101.309 42.4693L101.904 44.117L104.281 43.2579L104.469 43.7788L101.505 44.85Z" fill="white"/>
<path d="M107.675 37.551L109.057 42.5174L108.475 42.6794L104.684 39.5332L104.635 39.5467L105.72 43.4461L105.119 43.6135L103.737 38.6471L104.319 38.4851L108.123 41.6383L108.171 41.6248L107.083 37.7157L107.675 37.551Z" fill="white"/>
<path d="M112.821 38.2371L112.208 38.3553C112.138 38.186 112.045 38.0434 111.928 37.9274C111.814 37.8111 111.683 37.72 111.537 37.6542C111.393 37.5864 111.238 37.5444 111.075 37.5281C110.911 37.5118 110.745 37.5199 110.577 37.5524C110.27 37.6115 110.008 37.7425 109.789 37.9454C109.571 38.1479 109.418 38.4141 109.33 38.7439C109.243 39.0734 109.242 39.4573 109.327 39.8956C109.411 40.3339 109.555 40.6899 109.758 40.9634C109.963 41.2367 110.204 41.4269 110.481 41.5341C110.76 41.641 111.052 41.6649 111.359 41.6058C111.527 41.5734 111.684 41.5191 111.83 41.4431C111.976 41.3671 112.103 41.2715 112.213 41.1564C112.324 41.0394 112.41 40.9055 112.474 40.7549C112.538 40.6023 112.572 40.4352 112.574 40.2535L113.187 40.1353C113.191 40.4029 113.152 40.6506 113.069 40.8784C112.987 41.1063 112.869 41.3094 112.715 41.4877C112.561 41.6643 112.378 41.8115 112.167 41.9292C111.957 42.0466 111.725 42.1299 111.469 42.1792C111.038 42.2625 110.633 42.2311 110.256 42.085C109.88 41.9389 109.557 41.6901 109.29 41.3384C109.022 40.9867 108.836 40.5439 108.733 40.0101C108.63 39.4762 108.638 38.9962 108.756 38.5702C108.873 38.1441 109.08 37.7932 109.375 37.5175C109.671 37.2417 110.034 37.0622 110.466 36.9789C110.722 36.9297 110.968 36.9205 111.207 36.9514C111.447 36.982 111.671 37.0515 111.88 37.1599C112.089 37.2666 112.274 37.4104 112.435 37.5912C112.596 37.7704 112.725 37.9857 112.821 38.2371Z" fill="white"/>
<path d="M113.815 41.7478L113.223 36.6268L116.313 36.2692L116.377 36.8193L113.907 37.1052L114.107 38.8355L116.417 38.5682L116.481 39.1183L114.17 39.3856L114.372 41.126L116.882 40.8355L116.946 41.3856L113.815 41.7478Z" fill="white"/>
<path d="M120.425 36.1271L120.526 41.2812L119.902 41.2935L119.801 36.1393L120.425 36.1271Z" fill="white"/>
<path d="M126.355 36.2987L126.144 41.4495L125.54 41.4247L122.899 37.2652L122.849 37.2631L122.683 41.3073L122.059 41.2817L122.271 36.1309L122.874 36.1557L125.525 40.3257L125.575 40.3277L125.741 36.2735L126.355 36.2987Z" fill="white"/>
<path d="M128.718 41.8229L129.524 36.7311L132.597 37.2171L132.51 37.7641L130.054 37.3756L129.782 39.096L132.079 39.4594L131.992 40.0064L129.695 39.643L129.421 41.3735L131.918 41.7683L131.831 42.3152L128.718 41.8229Z" fill="white"/>
<path d="M137.645 38.4082L136.459 43.425L135.871 43.2859L134.069 38.7005L134.02 38.6889L133.088 42.6278L132.481 42.4841L133.667 37.4674L134.255 37.6064L136.065 42.204L136.114 42.2156L137.048 38.2668L137.645 38.4082Z" fill="white"/>
<path d="M139.594 41.8653L139.43 42.3943L137.275 41.7273L137.439 41.1983L139.594 41.8653Z" fill="white"/>
<path d="M141.043 40.1476L141.24 39.6299L144.854 41.0018L144.658 41.5196L143.142 40.9443L141.51 45.2463L140.926 45.0248L142.559 40.7228L141.043 40.1476Z" fill="white"/>
<path d="M143.234 45.9792L145.395 41.2989L148.22 42.6033L147.987 43.106L145.729 42.0634L144.999 43.6448L147.111 44.6199L146.879 45.1227L144.767 44.1476L144.033 45.7381L146.327 46.7976L146.095 47.3004L143.234 45.9792Z" fill="white"/>
<path d="M152.02 46.5614L151.475 46.2577C151.53 46.0829 151.55 45.9136 151.536 45.75C151.523 45.5871 151.481 45.4336 151.412 45.2893C151.345 45.1443 151.254 45.0129 151.139 44.8952C151.024 44.7774 150.891 44.6769 150.742 44.5936C150.469 44.4418 150.184 44.3732 149.886 44.3877C149.589 44.4031 149.301 44.5087 149.021 44.7043C148.742 44.9008 148.495 45.1941 148.278 45.5841C148.06 45.9741 147.942 46.3392 147.921 46.6793C147.902 47.0203 147.965 47.3209 148.108 47.5812C148.252 47.8422 148.461 48.0487 148.734 48.2005C148.883 48.2838 149.039 48.3432 149.199 48.3789C149.36 48.4146 149.519 48.4235 149.677 48.4057C149.837 48.3873 149.99 48.3407 150.135 48.266C150.283 48.1907 150.416 48.0843 150.535 47.9468L151.08 48.2505C150.911 48.4578 150.721 48.6222 150.512 48.7436C150.302 48.865 150.081 48.9446 149.849 48.9824C149.617 49.0187 149.383 49.0139 149.145 48.9681C148.909 48.923 148.677 48.8373 148.45 48.7108C148.066 48.4969 147.776 48.2129 147.582 47.8587C147.387 47.5045 147.3 47.1066 147.321 46.6651C147.342 46.2236 147.485 45.7653 147.75 45.2902C148.014 44.8152 148.328 44.4524 148.693 44.2019C149.057 43.9513 149.441 43.8155 149.844 43.7943C150.248 43.7732 150.642 43.8695 151.026 44.0834C151.253 44.2099 151.448 44.3616 151.611 44.5386C151.775 44.7164 151.902 44.914 151.992 45.1313C152.084 45.3472 152.133 45.5763 152.14 45.8185C152.148 46.0592 152.108 46.3069 152.02 46.5614Z" fill="white"/>
<path d="M150.514 49.8741L153.377 45.5872L153.896 45.9339L152.621 47.8429L154.907 49.3696L156.182 47.4606L156.701 47.8073L153.838 52.0942L153.319 51.7475L154.6 49.8301L152.314 48.3035L151.033 50.2209L150.514 49.8741Z" fill="white"/>
<path d="M159.711 50.2593L156.429 54.2354L155.948 53.838L159.229 49.862L159.711 50.2593Z" fill="white"/>
<path d="M164.098 54.2526L160.581 58.0224L160.14 57.6104L160.846 52.7344L160.809 52.7001L158.049 55.6599L157.592 55.2341L161.108 51.4643L161.55 51.8764L160.844 56.7666L160.881 56.8009L163.649 53.8337L164.098 54.2526Z" fill="white"/>
<path d="M167.06 59.6282C167.235 59.4404 167.307 59.2189 167.276 58.9639C167.245 58.7089 167.128 58.4623 166.927 58.2241C166.779 58.0499 166.622 57.9213 166.455 57.8384C166.289 57.7568 166.126 57.7212 165.965 57.7317C165.806 57.7434 165.664 57.8025 165.538 57.9087C165.433 57.9976 165.364 58.099 165.331 58.213C165.3 58.3271 165.293 58.445 165.31 58.5667C165.329 58.6873 165.359 58.8047 165.401 58.9189C165.444 59.032 165.487 59.1332 165.529 59.2225L165.76 59.7132C165.82 59.8384 165.879 59.9838 165.938 60.1494C165.998 60.3164 166.036 60.4921 166.051 60.6768C166.069 60.8617 166.047 61.0456 165.984 61.2285C165.921 61.4114 165.798 61.5809 165.613 61.737C165.401 61.917 165.161 62.024 164.895 62.0579C164.63 62.093 164.357 62.0471 164.076 61.9202C163.796 61.7945 163.528 61.5806 163.272 61.2783C163.034 60.9965 162.873 60.7141 162.789 60.4309C162.706 60.149 162.697 59.8802 162.76 59.6247C162.823 59.3705 162.957 59.1446 163.159 58.947L163.575 59.4388C163.437 59.5774 163.357 59.7315 163.333 59.901C163.312 60.0707 163.334 60.2428 163.401 60.4174C163.47 60.5922 163.57 60.7577 163.703 60.914C163.857 61.0958 164.024 61.2342 164.206 61.329C164.388 61.4228 164.569 61.4669 164.747 61.4615C164.926 61.4549 165.087 61.3909 165.231 61.2695C165.361 61.1589 165.437 61.0324 165.457 60.89C165.477 60.7476 165.462 60.5951 165.413 60.4327C165.363 60.2702 165.299 60.1035 165.22 59.9327L164.949 59.3314C164.777 58.9492 164.697 58.5991 164.709 58.281C164.721 57.9629 164.86 57.6916 165.125 57.4672C165.345 57.2807 165.588 57.1776 165.852 57.1579C166.12 57.1384 166.384 57.1913 166.646 57.3167C166.911 57.4423 167.15 57.6306 167.362 57.8816C167.577 58.1352 167.722 58.3991 167.798 58.6733C167.876 58.9464 167.885 59.2068 167.826 59.4543C167.769 59.7032 167.643 59.9148 167.45 60.0893L167.06 59.6282Z" fill="white"/>
<path d="M168.39 60.1706L168.837 59.844L171.118 62.9662L170.67 63.2928L169.714 61.9837L165.999 64.6978L165.63 64.1937L169.346 61.4796L168.39 60.1706Z" fill="white"/>
<path d="M167.153 66.4158L166.808 65.8598L172.186 64.7495L172.526 65.297L169.144 69.6239L168.799 69.0678L171.674 65.4705L171.653 65.4362L167.153 66.4158ZM168.992 65.5592L170.383 67.8006L169.912 68.0926L168.521 65.8512L168.992 65.5592Z" fill="white"/>
<path d="M169.311 70.0666L173.888 67.6939L174.689 69.2404C174.875 69.5979 174.966 69.9231 174.963 70.2158C174.961 70.5078 174.883 70.7638 174.728 70.9837C174.574 71.2036 174.362 71.3835 174.092 71.5233C173.823 71.6631 173.555 71.7319 173.289 71.7298C173.024 71.7277 172.772 71.6435 172.535 71.4774C172.299 71.3105 172.089 71.0497 171.905 70.6951L171.256 69.4437L171.757 69.1842L172.396 70.4177C172.523 70.6621 172.661 70.8402 172.81 70.9521C172.959 71.0655 173.117 71.1217 173.283 71.1208C173.451 71.1206 173.626 71.073 173.81 70.978C173.993 70.883 174.135 70.7657 174.237 70.6261C174.338 70.4865 174.387 70.3222 174.384 70.1331C174.382 69.9433 174.317 69.7247 174.189 69.4774L173.683 68.503L169.598 70.6208L169.311 70.0666ZM172.484 71.155L171.012 73.3471L170.678 72.7035L172.159 70.5293L172.484 71.155Z" fill="white"/>
<path d="M175.217 71.6137L175.726 71.3947L177.255 74.9459L176.746 75.1649L176.105 73.676L171.879 75.4957L171.632 74.9223L175.859 73.1026L175.217 71.6137Z" fill="white"/>
<path d="M178.531 78.7491L178.734 79.3395L175.506 80.4494C175.173 80.564 174.849 80.5878 174.533 80.5207C174.219 80.4547 173.938 80.3056 173.69 80.0734C173.443 79.8406 173.254 79.533 173.122 79.1506C172.99 78.7681 172.95 78.4092 173.002 78.0739C173.055 77.738 173.185 77.4467 173.391 77.2001C173.599 76.9546 173.87 76.7745 174.203 76.6599L177.431 75.5499L177.634 76.1403L174.454 77.2339C174.216 77.3157 174.022 77.4409 173.872 77.6095C173.724 77.7775 173.63 77.9766 173.591 78.2068C173.553 78.438 173.581 78.6893 173.674 78.9607C173.768 79.232 173.9 79.4473 174.072 79.6065C174.245 79.7651 174.442 79.8643 174.661 79.9042C174.883 79.9451 175.113 79.9246 175.351 79.8427L178.531 78.7491Z" fill="white"/>
<path d="M173.921 81.4668L178.91 80.1714L179.348 81.8574C179.45 82.2488 179.462 82.5871 179.385 82.8723C179.31 83.1587 179.169 83.393 178.962 83.5752C178.754 83.7574 178.503 83.8867 178.209 83.963C177.915 84.0393 177.633 84.0486 177.361 83.9908C177.09 83.9346 176.851 83.8008 176.643 83.5894C176.437 83.3776 176.284 83.0776 176.183 82.6894L175.869 81.4809L176.405 81.3418L176.714 82.5307C176.784 82.7988 176.886 83.0019 177.021 83.1403C177.155 83.2787 177.311 83.364 177.488 83.3962C177.666 83.4296 177.855 83.4204 178.055 83.3685C178.255 83.3166 178.424 83.2329 178.562 83.1173C178.701 83.0033 178.793 82.8527 178.84 82.6654C178.888 82.4777 178.877 82.2483 178.807 81.977L178.531 80.9148L174.077 82.071L173.921 81.4668Z" fill="white"/>
<path d="M179.727 108.486L179.582 109.186L176.935 110.096L176.922 110.155L178.987 112.044L178.842 112.744L176.254 110.304L174.174 109.871L174.301 109.26L176.381 109.692L179.727 108.486Z" fill="white"/>
<path d="M173.689 111.813L178.649 113.221L177.799 116.214L177.266 116.062L177.945 113.67L176.27 113.194L175.634 115.432L175.102 115.28L175.737 113.043L174.052 112.564L173.361 114.995L172.829 114.844L173.689 111.813Z" fill="white"/>
<path d="M172.508 115.667L172.734 115.053L176.92 118.608L176.698 119.212L171.206 119.212L171.432 118.597L176.037 118.648L176.051 118.61L172.508 115.667ZM174.315 116.589L173.406 119.065L172.886 118.874L173.795 116.398L174.315 116.589Z" fill="white"/>
<path d="M170.965 119.619L175.653 121.764L174.928 123.348C174.76 123.714 174.56 123.986 174.327 124.164C174.096 124.343 173.846 124.439 173.578 124.452C173.31 124.466 173.037 124.41 172.761 124.283C172.485 124.157 172.266 123.988 172.104 123.778C171.942 123.567 171.853 123.317 171.838 123.028C171.824 122.739 171.901 122.413 172.067 122.05L172.654 120.768L173.166 121.003L172.588 122.266C172.474 122.517 172.418 122.735 172.421 122.921C172.424 123.109 172.477 123.267 172.58 123.398C172.683 123.53 172.829 123.639 173.017 123.725C173.204 123.811 173.384 123.851 173.557 123.845C173.729 123.839 173.889 123.776 174.036 123.657C174.184 123.539 174.317 123.353 174.432 123.099L174.889 122.102L170.705 120.187L170.965 119.619ZM172.061 122.789L169.427 122.979L169.729 122.32L172.354 122.148L172.061 122.789Z" fill="white"/>
<path d="M171.243 127.591C171.481 127.688 171.714 127.676 171.941 127.556C172.168 127.435 172.357 127.238 172.507 126.965C172.617 126.765 172.681 126.572 172.699 126.387C172.716 126.203 172.691 126.037 172.623 125.891C172.556 125.747 172.449 125.635 172.305 125.556C172.185 125.489 172.065 125.461 171.947 125.471C171.829 125.483 171.717 125.518 171.609 125.578C171.503 125.638 171.405 125.709 171.313 125.788C171.223 125.869 171.143 125.945 171.075 126.017L170.699 126.408C170.604 126.508 170.489 126.616 170.356 126.73C170.221 126.845 170.07 126.944 169.903 127.024C169.737 127.107 169.558 127.152 169.364 127.159C169.171 127.165 168.968 127.11 168.757 126.994C168.513 126.86 168.327 126.674 168.201 126.438C168.073 126.203 168.018 125.932 168.036 125.624C168.054 125.317 168.158 124.991 168.349 124.644C168.526 124.32 168.733 124.069 168.967 123.889C169.201 123.712 169.448 123.606 169.71 123.574C169.97 123.543 170.228 123.586 170.485 123.704L170.175 124.269C169.996 124.19 169.823 124.17 169.657 124.208C169.491 124.249 169.338 124.332 169.199 124.456C169.06 124.583 168.941 124.736 168.843 124.915C168.728 125.124 168.658 125.33 168.635 125.534C168.612 125.738 168.636 125.922 168.704 126.086C168.775 126.251 168.892 126.379 169.057 126.469C169.207 126.552 169.352 126.577 169.492 126.545C169.632 126.513 169.769 126.445 169.903 126.34C170.037 126.236 170.17 126.116 170.301 125.982L170.766 125.513C171.061 125.216 171.36 125.017 171.661 124.914C171.963 124.812 172.266 124.844 172.57 125.012C172.823 125.151 173.006 125.34 173.119 125.581C173.233 125.823 173.278 126.089 173.254 126.379C173.232 126.671 173.141 126.961 172.983 127.249C172.823 127.541 172.628 127.771 172.399 127.94C172.172 128.11 171.932 128.211 171.68 128.245C171.427 128.28 171.184 128.239 170.952 128.121L171.243 127.591Z" fill="white"/>
<path d="M165.555 133.643C165.114 133.325 164.79 132.971 164.584 132.58C164.377 132.19 164.287 131.793 164.312 131.389C164.338 130.986 164.479 130.606 164.736 130.249C164.993 129.892 165.309 129.638 165.683 129.485C166.058 129.333 166.463 129.293 166.899 129.365C167.335 129.437 167.774 129.632 168.215 129.95C168.656 130.268 168.98 130.622 169.187 131.013C169.393 131.403 169.484 131.8 169.458 132.204C169.432 132.607 169.291 132.987 169.034 133.344C168.777 133.701 168.461 133.955 168.087 134.108C167.713 134.26 167.308 134.3 166.871 134.228C166.435 134.156 165.997 133.961 165.555 133.643ZM165.908 133.153C166.271 133.414 166.62 133.573 166.957 133.631C167.292 133.691 167.598 133.664 167.874 133.551C168.149 133.439 168.378 133.256 168.56 133.003C168.743 132.749 168.844 132.474 168.864 132.176C168.883 131.88 168.812 131.581 168.65 131.28C168.487 130.981 168.224 130.701 167.862 130.44C167.5 130.179 167.151 130.019 166.815 129.959C166.479 129.901 166.173 129.928 165.898 130.04C165.622 130.154 165.393 130.337 165.21 130.59C165.028 130.844 164.927 131.118 164.908 131.415C164.888 131.713 164.959 132.011 165.122 132.311C165.284 132.611 165.546 132.892 165.908 133.153Z" fill="white"/>
<path d="M163.07 132.504L167.008 135.831L165.014 138.192L164.591 137.835L166.182 135.95L164.851 134.826L163.409 136.534L162.986 136.177L164.428 134.469L162.667 132.981L163.07 132.504Z" fill="white"/>
<path d="M159.123 136.823L162.678 140.556L160.425 142.701L160.043 142.3L161.844 140.585L160.643 139.324L158.958 140.928L158.577 140.527L160.261 138.923L159.053 137.654L157.222 139.397L156.841 138.996L159.123 136.823Z" fill="white"/>
<path d="M159.349 143.58L156.957 142.774L156.926 142.8L157.269 145.3L156.703 145.768L156.309 142.749L153.417 141.796L153.983 141.328L156.349 142.102L156.38 142.076L156.062 139.608L156.629 139.139L156.992 142.184L159.915 143.111L159.349 143.58Z" fill="white"/>
<path d="M151.971 147.088L152.481 146.727C152.615 146.853 152.759 146.944 152.912 147.002C153.065 147.06 153.221 147.09 153.381 147.089C153.541 147.091 153.699 147.066 153.855 147.013C154.011 146.96 154.159 146.885 154.298 146.786C154.553 146.606 154.738 146.378 154.854 146.103C154.968 145.828 154.998 145.523 154.942 145.186C154.886 144.85 154.728 144.5 154.47 144.135C154.213 143.771 153.935 143.506 153.637 143.341C153.338 143.176 153.04 143.102 152.743 143.119C152.445 143.137 152.169 143.236 151.914 143.416C151.774 143.515 151.653 143.629 151.552 143.758C151.45 143.888 151.373 144.028 151.321 144.178C151.269 144.33 151.245 144.488 151.249 144.651C151.253 144.817 151.292 144.983 151.364 145.149L150.855 145.51C150.741 145.268 150.674 145.026 150.656 144.784C150.637 144.543 150.661 144.309 150.727 144.083C150.794 143.859 150.9 143.649 151.044 143.455C151.187 143.261 151.364 143.089 151.577 142.939C151.935 142.685 152.317 142.547 152.72 142.525C153.124 142.502 153.52 142.596 153.909 142.806C154.298 143.016 154.65 143.343 154.964 143.786C155.278 144.23 155.469 144.671 155.537 145.107C155.606 145.544 155.562 145.949 155.407 146.322C155.252 146.695 154.995 147.009 154.636 147.263C154.423 147.413 154.202 147.523 153.972 147.593C153.741 147.664 153.508 147.694 153.273 147.681C153.039 147.67 152.811 147.615 152.589 147.517C152.369 147.42 152.163 147.277 151.971 147.088Z" fill="white"/>
<path d="M149.617 144.3L152.269 148.72L149.602 150.321L149.317 149.846L151.449 148.566L150.553 147.073L148.559 148.269L148.274 147.795L150.268 146.598L149.367 145.096L147.2 146.396L146.915 145.921L149.617 144.3Z" fill="white"/>
<path d="M146.286 146.213L148.632 150.803L148.076 151.087L145.982 146.99L143.848 148.08L143.596 147.587L146.286 146.213Z" fill="white"/>
<path d="M143.016 147.803L145.053 152.539L144.48 152.786L142.661 148.559L140.46 149.506L140.241 148.997L143.016 147.803Z" fill="white"/>
<path d="M139.659 149.175L141.369 154.038L138.434 155.071L138.251 154.548L140.597 153.723L140.019 152.08L137.825 152.852L137.641 152.329L139.835 151.558L139.254 149.905L136.869 150.744L136.686 150.221L139.659 149.175Z" fill="white"/>
<path d="M133.423 156.421L132.084 151.443L132.667 151.286L136.432 154.464L136.48 154.451L135.429 150.543L136.031 150.381L137.371 155.359L136.788 155.516L133.011 152.33L132.962 152.343L134.017 156.261L133.423 156.421Z" fill="white"/>
<path d="M128.282 155.69L128.896 155.577C128.965 155.747 129.057 155.89 129.173 156.007C129.286 156.124 129.416 156.217 129.561 156.284C129.705 156.353 129.859 156.396 130.023 156.414C130.187 156.431 130.353 156.425 130.521 156.394C130.828 156.337 131.092 156.209 131.312 156.008C131.531 155.807 131.687 155.542 131.778 155.213C131.867 154.884 131.872 154.5 131.791 154.061C131.71 153.622 131.57 153.265 131.369 152.99C131.166 152.715 130.927 152.523 130.651 152.413C130.373 152.304 130.081 152.277 129.774 152.334C129.605 152.365 129.448 152.418 129.301 152.492C129.155 152.567 129.026 152.662 128.916 152.776C128.804 152.892 128.716 153.025 128.651 153.175C128.586 153.327 128.551 153.494 128.546 153.676L127.933 153.789C127.931 153.521 127.973 153.274 128.057 153.046C128.141 152.819 128.261 152.617 128.416 152.44C128.572 152.265 128.756 152.119 128.968 152.003C129.179 151.888 129.412 151.807 129.668 151.759C130.1 151.68 130.504 151.715 130.88 151.864C131.256 152.013 131.576 152.265 131.841 152.619C132.105 152.973 132.287 153.417 132.385 153.952C132.484 154.487 132.472 154.967 132.351 155.392C132.229 155.817 132.02 156.166 131.722 156.439C131.424 156.712 131.059 156.889 130.627 156.968C130.371 157.015 130.124 157.022 129.886 156.989C129.646 156.957 129.422 156.885 129.214 156.775C129.006 156.667 128.823 156.521 128.663 156.339C128.503 156.158 128.377 155.942 128.282 155.69Z" fill="white"/>
<path d="M127.322 152.171L127.87 157.297L124.777 157.628L124.718 157.078L127.191 156.813L127.005 155.081L124.693 155.329L124.634 154.778L126.947 154.53L126.76 152.788L124.247 153.057L124.188 152.507L127.322 152.171Z" fill="white"/>
<path d="M120.665 157.735L120.608 152.58L121.232 152.573L121.289 157.728L120.665 157.735Z" fill="white"/>
<path d="M114.733 157.514L114.989 152.365L115.592 152.395L118.197 156.577L118.247 156.58L118.448 152.537L119.071 152.568L118.816 157.717L118.212 157.687L115.598 153.494L115.548 153.492L115.346 157.545L114.733 157.514Z" fill="white"/>
<path d="M112.42 151.969L111.571 157.054L108.502 156.542L108.593 155.996L111.046 156.405L111.333 154.687L109.039 154.304L109.13 153.758L111.424 154.141L111.713 152.413L109.22 151.997L109.311 151.45L112.42 151.969Z" fill="white"/>
<path d="M103.465 155.307L104.695 150.3L105.282 150.445L107.044 155.045L107.093 155.057L108.058 151.127L108.665 151.275L107.435 156.282L106.849 156.138L105.078 151.525L105.03 151.513L104.062 155.453L103.465 155.307Z" fill="white"/>
<path d="M101.548 151.834L101.716 151.306L103.865 151.992L103.697 152.519L101.548 151.834Z" fill="white"/>
<path d="M100.083 153.538L99.8816 154.054L96.2788 152.651L96.4797 152.135L97.9903 152.723L99.6599 148.435L100.242 148.662L98.572 152.95L100.083 153.538Z" fill="white"/>
<path d="M97.9402 147.688L95.7389 152.349L92.9256 151.021L93.162 150.52L95.4109 151.582L96.1547 150.007L94.0515 149.014L94.288 148.513L96.3911 149.506L97.1392 147.922L94.854 146.843L95.0904 146.342L97.9402 147.688Z" fill="white"/>
<path d="M89.1584 147.03L89.7013 147.339C89.6447 147.513 89.623 147.682 89.6361 147.846C89.6477 148.009 89.6877 148.163 89.7559 148.308C89.8219 148.453 89.9118 148.585 90.0258 148.704C90.1397 148.823 90.2711 148.925 90.42 149.009C90.6914 149.163 90.9762 149.234 91.2744 149.222C91.5712 149.209 91.8604 149.106 92.1419 148.913C92.422 148.719 92.6722 148.428 92.8927 148.04C93.1131 147.652 93.235 147.288 93.2583 146.948C93.2801 146.607 93.2205 146.306 93.0795 146.044C92.9371 145.782 92.7302 145.574 92.4588 145.42C92.3099 145.335 92.1553 145.274 91.995 145.237C91.8346 145.2 91.6754 145.19 91.5175 145.206C91.3573 145.223 91.2042 145.269 91.0583 145.342C90.9101 145.416 90.776 145.521 90.656 145.658L90.1132 145.349C90.2842 145.144 90.475 144.981 90.6858 144.861C90.8965 144.742 91.1182 144.664 91.3508 144.628C91.5826 144.594 91.8171 144.601 92.0543 144.649C92.2901 144.696 92.521 144.783 92.7472 144.912C93.1295 145.129 93.4164 145.415 93.608 145.771C93.7996 146.127 93.883 146.526 93.8581 146.967C93.8332 147.408 93.6865 147.865 93.418 148.338C93.1495 148.811 92.832 149.171 92.4657 149.418C92.0994 149.666 91.7144 149.798 91.3106 149.816C90.9069 149.834 90.5138 149.734 90.1315 149.517C89.9054 149.388 89.7117 149.235 89.5506 149.057C89.3879 148.877 89.2624 148.679 89.174 148.461C89.0848 148.244 89.0376 148.015 89.0324 147.772C89.0263 147.531 89.0684 147.284 89.1584 147.03Z" fill="white"/>
<path d="M90.691 143.73L87.7912 147.992L87.275 147.641L88.5664 145.743L86.2938 144.197L85.0024 146.095L84.4863 145.743L87.3861 141.481L87.9023 141.832L86.6053 143.739L88.8779 145.285L90.1749 143.379L90.691 143.73Z" fill="white"/>
<path d="M81.4998 143.267L84.8151 139.319L85.2931 139.721L81.9779 143.668L81.4998 143.267Z" fill="white"/>
<path d="M77.1486 139.236L80.6971 135.497L81.1353 135.913L80.3869 140.782L80.4235 140.817L83.2096 137.881L83.6624 138.311L80.1139 142.05L79.6757 141.634L80.4237 136.75L80.3872 136.716L77.5941 139.659L77.1486 139.236Z" fill="white"/>
<path d="M74.2299 133.835C74.0532 134.021 73.9793 134.242 74.0083 134.497C74.0373 134.752 74.1517 135 74.3513 135.24C74.4973 135.415 74.6534 135.545 74.8196 135.63C74.9848 135.713 75.1476 135.75 75.3081 135.741C75.4675 135.73 75.6105 135.672 75.7369 135.567C75.8427 135.479 75.9127 135.378 75.9469 135.265C75.9788 135.151 75.9867 135.033 75.9704 134.911C75.9529 134.79 75.9238 134.673 75.883 134.558C75.841 134.445 75.7991 134.343 75.7573 134.254L75.5307 133.761C75.472 133.635 75.4139 133.489 75.3564 133.323C75.2979 133.156 75.2616 132.98 75.2476 132.795C75.2312 132.61 75.2552 132.426 75.3195 132.244C75.3839 132.061 75.509 131.893 75.6948 131.738C75.9089 131.56 76.1491 131.455 76.4153 131.424C76.6805 131.391 76.9531 131.439 77.2332 131.568C77.5122 131.696 77.7783 131.913 78.0316 132.217C78.2678 132.501 78.4264 132.785 78.5076 133.069C78.5878 133.351 78.5953 133.62 78.5302 133.875C78.4641 134.129 78.3291 134.354 78.1252 134.549L77.7131 134.054C77.852 133.917 77.934 133.763 77.959 133.594C77.9817 133.424 77.9606 133.252 77.8956 133.077C77.8283 132.902 77.7291 132.735 77.5982 132.578C77.4458 132.395 77.2793 132.255 77.0987 132.158C76.9167 132.063 76.7368 132.017 76.5589 132.021C76.3797 132.026 76.2179 132.089 76.0734 132.209C75.9418 132.319 75.8653 132.445 75.844 132.587C75.8226 132.729 75.836 132.882 75.8842 133.044C75.9324 133.207 75.9951 133.375 76.0724 133.546L76.3387 134.15C76.5073 134.533 76.5842 134.884 76.5693 135.202C76.5545 135.52 76.4135 135.79 76.1465 136.012C75.9246 136.197 75.6812 136.298 75.4163 136.315C75.149 136.332 74.8847 136.277 74.6236 136.15C74.36 136.022 74.1231 135.831 73.9127 135.579C73.7002 135.323 73.5571 135.058 73.4834 134.783C73.4084 134.509 73.4013 134.249 73.4621 134.002C73.5218 133.754 73.649 133.543 73.8435 133.37L74.2299 133.835Z" fill="white"/>
<path d="M72.9057 133.281L72.4558 133.604L70.2021 130.463L70.6521 130.14L71.597 131.457L75.3359 128.775L75.6997 129.282L71.9609 131.964L72.9057 133.281Z" fill="white"/>
<path d="M74.1967 127.047L74.5371 127.606L69.1495 128.67L68.8144 128.12L72.2332 123.822L72.5735 124.381L69.668 127.954L69.689 127.988L74.1967 127.047ZM72.3511 127.888L70.9792 125.635L71.4522 125.347L72.8241 127.6L72.3511 127.888Z" fill="white"/>
<path d="M72.0688 123.377L67.4719 125.71L66.6835 124.157C66.5012 123.798 66.4129 123.472 66.4187 123.179C66.4229 122.887 66.5032 122.632 66.6594 122.413C66.8157 122.195 67.0293 122.017 67.3001 121.879C67.571 121.742 67.8393 121.675 68.105 121.68C68.3707 121.684 68.6215 121.77 68.8574 121.939C69.0918 122.108 69.2994 122.37 69.4802 122.726L70.1182 123.983L69.6154 124.238L68.9865 122.999C68.8619 122.754 68.7258 122.575 68.578 122.462C68.4294 122.347 68.2722 122.289 68.1064 122.289C67.9383 122.288 67.7622 122.334 67.5781 122.427C67.3941 122.52 67.2507 122.637 67.1479 122.775C67.0452 122.914 66.9948 123.078 66.9967 123.267C66.9971 123.457 67.0603 123.676 67.1864 123.924L67.6832 124.903L71.7862 122.82L72.0688 123.377ZM68.9055 122.261L70.3963 120.082L70.7244 120.728L69.2245 122.89L68.9055 122.261Z" fill="white"/>
<path d="M66.1761 121.779L65.6656 121.993L64.1671 118.429L64.6776 118.215L65.3059 119.709L69.5476 117.926L69.7896 118.501L65.5478 120.284L66.1761 121.779Z" fill="white"/>
<path d="M62.9283 114.615L62.7304 114.023L65.9675 112.941C66.3017 112.829 66.6265 112.808 66.9418 112.878C67.2549 112.947 67.5347 113.098 67.7812 113.333C68.026 113.568 68.2125 113.877 68.3408 114.26C68.469 114.644 68.5059 115.003 68.4516 115.338C68.3956 115.674 68.2635 115.964 68.0551 116.209C67.8447 116.452 67.5723 116.63 67.2381 116.742L64.0009 117.824L63.803 117.232L66.9924 116.166C67.2312 116.086 67.4261 115.962 67.5772 115.795C67.7267 115.628 67.8223 115.43 67.864 115.2C67.9036 114.969 67.8779 114.718 67.7869 114.446C67.6959 114.173 67.5652 113.957 67.3947 113.796C67.2226 113.636 67.027 113.535 66.8078 113.494C66.5865 113.451 66.3564 113.469 66.1177 113.549L62.9283 114.615Z" fill="white"/>
<path d="M67.5604 111.938L62.5598 113.19L62.1365 111.501C62.0383 111.108 62.0288 110.77 62.108 110.485C62.1852 110.2 62.3284 109.966 62.5375 109.786C62.7466 109.606 62.9985 109.479 63.2931 109.405C63.5877 109.331 63.8706 109.324 64.1417 109.384C64.4124 109.443 64.6505 109.579 64.8562 109.792C65.0602 110.005 65.2109 110.307 65.3083 110.696L65.6117 111.907L65.0745 112.041L64.7761 110.85C64.7088 110.581 64.6084 110.377 64.4748 110.238C64.3412 110.098 64.1863 110.011 64.0101 109.978C63.8318 109.943 63.6426 109.95 63.4423 110.001C63.2421 110.051 63.0724 110.133 62.9333 110.247C62.7937 110.36 62.6998 110.51 62.6514 110.697C62.6015 110.884 62.6105 111.114 62.6786 111.386L62.9453 112.45L67.4088 111.332L67.5604 111.938Z" fill="white"/>
</g>
<defs>
<filter id="filter0_bd_846_2118" x="-49.5294" y="-70.6349" width="338.024" height="338.236" filterUnits="userSpaceOnUse" color-interpolation-filters="sRGB">
<feFlood flood-opacity="0" result="BackgroundImageFix"/>
<feGaussianBlur in="BackgroundImageFix" stdDeviation="47.4034"/>
<feComposite in2="SourceAlpha" operator="in" result="effect1_backgroundBlur_846_2118"/>
<feColorMatrix in="SourceAlpha" type="matrix" values="0 0 0 0 0 0 0 0 0 0 0 0 0 0 0 0 0 0 127 0" result="hardAlpha"/>
<feOffset dy="20.9315"/>
<feGaussianBlur stdDeviation="22.2397"/>
<feComposite in2="hardAlpha" operator="out"/>
<feColorMatrix type="matrix" values="0 0 0 0 0 0 0 0 0 0 0 0 0 0 0 0 0 0 0.55 0"/>
<feBlend mode="normal" in2="effect1_backgroundBlur_846_2118" result="effect2_dropShadow_846_2118"/>
<feBlend mode="normal" in="SourceGraphic" in2="effect2_dropShadow_846_2118" result="shape"/>
</filter>
<linearGradient id="paint0_linear_846_2118" x1="44" y1="30.5989" x2="212.743" y2="61.6052" gradientUnits="userSpaceOnUse">
<stop offset="0.0899057" stop-color="#1F1F1F"/>
<stop offset="0.494792" stop-color="#3C3C3C"/>
<stop offset="0.948055" stop-color="#232323"/>
</linearGradient>
<linearGradient id="paint1_linear_846_2118" x1="76.1389" y1="79.5686" x2="119.962" y2="168.909" gradientUnits="userSpaceOnUse">
<stop stop-color="#FFFDFD" stop-opacity="0.45"/>
<stop stop-color="#FFE3E2"/>
<stop offset="0.310417" stop-color="#FF7970"/>
<stop offset="0.602083" stop-color="#F85694"/>
<stop offset="0.994177" stop-color="#151212"/>
</linearGradient>
</defs>
</svg>
